<svg width="46" height="24" viewBox="0 0 46 24" fill="none" xmlns="http://www.w3.org/2000/svg">
<path d="M7.67578 13.6089H9.08203C9.00879 14.2827 8.81592 14.8857 8.50342 15.418C8.19092 15.9502 7.74902 16.3726 7.17773 16.6851C6.60645 16.9927 5.89355 17.1465 5.03906 17.1465C4.41406 17.1465 3.84521 17.0293 3.33252 16.7949C2.82471 16.5605 2.3877 16.2285 2.02148 15.7988C1.65527 15.3643 1.37207 14.8442 1.17188 14.2388C0.976562 13.6284 0.878906 12.9497 0.878906 12.2026V11.1406C0.878906 10.3936 0.976562 9.71729 1.17188 9.11182C1.37207 8.50146 1.65771 7.979 2.02881 7.54443C2.40479 7.10986 2.85645 6.77539 3.38379 6.54102C3.91113 6.30664 4.50439 6.18945 5.16357 6.18945C5.96924 6.18945 6.65039 6.34082 7.20703 6.64355C7.76367 6.94629 8.1958 7.36621 8.50342 7.90332C8.81592 8.43555 9.00879 9.05322 9.08203 9.75635H7.67578C7.60742 9.2583 7.48047 8.83105 7.29492 8.47461C7.10938 8.11328 6.8457 7.83496 6.50391 7.63965C6.16211 7.44434 5.71533 7.34668 5.16357 7.34668C4.68994 7.34668 4.27246 7.43701 3.91113 7.61768C3.55469 7.79834 3.25439 8.05469 3.01025 8.38672C2.771 8.71875 2.59033 9.1167 2.46826 9.58057C2.34619 10.0444 2.28516 10.5596 2.28516 11.126V12.2026C2.28516 12.7251 2.33887 13.2158 2.44629 13.6748C2.55859 14.1338 2.72705 14.5366 2.95166 14.8833C3.17627 15.23 3.46191 15.5034 3.80859 15.7036C4.15527 15.8989 4.56543 15.9966 5.03906 15.9966C5.63965 15.9966 6.11816 15.9014 6.47461 15.7109C6.83105 15.5205 7.09961 15.2471 7.28027 14.8906C7.46582 14.5342 7.59766 14.1069 7.67578 13.6089ZM12.1582 10.3203V17H10.8032V9.0752H12.1216L12.1582 10.3203ZM14.6338 9.03125L14.6265 10.291C14.5142 10.2666 14.4067 10.252 14.3042 10.2471C14.2065 10.2373 14.0942 10.2324 13.9673 10.2324C13.6548 10.2324 13.3789 10.2812 13.1396 10.3789C12.9004 10.4766 12.6978 10.6133 12.5317 10.7891C12.3657 10.9648 12.2339 11.1748 12.1362 11.4189C12.0435 11.6582 11.9824 11.9219 11.9531 12.21L11.5723 12.4297C11.5723 11.9512 11.6187 11.502 11.7114 11.082C11.8091 10.6621 11.958 10.291 12.1582 9.96875C12.3584 9.6416 12.6123 9.3877 12.9199 9.20703C13.2324 9.02148 13.6035 8.92871 14.0332 8.92871C14.1309 8.92871 14.2432 8.94092 14.3701 8.96533C14.4971 8.98486 14.585 9.00684 14.6338 9.03125ZM19.0283 17.1465C18.4766 17.1465 17.9761 17.0537 17.5269 16.8682C17.0825 16.6777 16.6992 16.4116 16.377 16.0698C16.0596 15.728 15.8154 15.3228 15.6445 14.854C15.4736 14.3853 15.3882 13.8726 15.3882 13.3159V13.0083C15.3882 12.3638 15.4834 11.79 15.6738 11.2871C15.8643 10.7793 16.123 10.3496 16.4502 9.99805C16.7773 9.64648 17.1484 9.38037 17.5635 9.19971C17.9785 9.01904 18.4082 8.92871 18.8525 8.92871C19.4189 8.92871 19.9072 9.02637 20.3174 9.22168C20.7324 9.41699 21.0718 9.69043 21.3354 10.042C21.5991 10.3887 21.7944 10.7988 21.9214 11.2725C22.0483 11.7412 22.1118 12.2539 22.1118 12.8105V13.4185H16.1938V12.3125H20.7568V12.21C20.7373 11.8584 20.6641 11.5166 20.5371 11.1846C20.415 10.8525 20.2197 10.5791 19.9512 10.3643C19.6826 10.1494 19.3164 10.042 18.8525 10.042C18.5449 10.042 18.2617 10.1079 18.0029 10.2397C17.7441 10.3667 17.522 10.5571 17.3364 10.811C17.1509 11.0649 17.0068 11.375 16.9043 11.7412C16.8018 12.1074 16.7505 12.5298 16.7505 13.0083V13.3159C16.7505 13.6919 16.8018 14.0459 16.9043 14.3779C17.0117 14.7051 17.1655 14.9932 17.3657 15.2422C17.5708 15.4912 17.8174 15.6865 18.1055 15.8281C18.3984 15.9697 18.7305 16.0405 19.1016 16.0405C19.5801 16.0405 19.9854 15.9429 20.3174 15.7476C20.6494 15.5522 20.9399 15.291 21.189 14.9639L22.0093 15.6157C21.8384 15.8745 21.6211 16.1211 21.3574 16.3555C21.0938 16.5898 20.769 16.7803 20.3833 16.9268C20.0024 17.0732 19.5508 17.1465 19.0283 17.1465ZM28.3667 15.645V11.5654C28.3667 11.2529 28.3032 10.9819 28.1763 10.7524C28.0542 10.5181 27.8687 10.3374 27.6196 10.2104C27.3706 10.0835 27.063 10.02 26.6968 10.02C26.355 10.02 26.0547 10.0786 25.7959 10.1958C25.542 10.313 25.3418 10.4668 25.1953 10.6572C25.0537 10.8477 24.9829 11.0527 24.9829 11.2725H23.6279C23.6279 10.9893 23.7012 10.7085 23.8477 10.4302C23.9941 10.1519 24.2041 9.90039 24.4775 9.67578C24.7559 9.44629 25.0879 9.26562 25.4736 9.13379C25.8643 8.99707 26.2988 8.92871 26.7773 8.92871C27.3535 8.92871 27.8613 9.02637 28.3008 9.22168C28.7451 9.41699 29.0918 9.7124 29.3408 10.1079C29.5947 10.4985 29.7217 10.9893 29.7217 11.5801V15.2715C29.7217 15.5352 29.7437 15.8159 29.7876 16.1138C29.8364 16.4116 29.9072 16.668 30 16.8828V17H28.5864C28.5181 16.8438 28.4644 16.6362 28.4253 16.3774C28.3862 16.1138 28.3667 15.8696 28.3667 15.645ZM28.6011 12.1953L28.6157 13.1475H27.2461C26.8604 13.1475 26.5161 13.1792 26.2134 13.2427C25.9106 13.3013 25.6567 13.3916 25.4517 13.5137C25.2466 13.6357 25.0903 13.7896 24.9829 13.9751C24.8755 14.1558 24.8218 14.3682 24.8218 14.6123C24.8218 14.8613 24.8779 15.0884 24.9902 15.2935C25.1025 15.4985 25.271 15.6621 25.4956 15.7842C25.7251 15.9014 26.0059 15.96 26.3379 15.96C26.7529 15.96 27.1191 15.8721 27.4365 15.6963C27.7539 15.5205 28.0054 15.3057 28.1909 15.0518C28.3813 14.7979 28.4839 14.5513 28.4985 14.312L29.0771 14.9639C29.043 15.1689 28.9502 15.396 28.7988 15.645C28.6475 15.894 28.4448 16.1333 28.1909 16.3628C27.9419 16.5874 27.644 16.7754 27.2974 16.9268C26.9556 17.0732 26.5698 17.1465 26.1401 17.1465C25.603 17.1465 25.1318 17.0415 24.7266 16.8315C24.3262 16.6216 24.0137 16.3408 23.7891 15.9893C23.5693 15.6328 23.4595 15.2349 23.4595 14.7954C23.4595 14.3706 23.5425 13.9971 23.7085 13.6748C23.8745 13.3477 24.1138 13.0767 24.4263 12.8618C24.7388 12.6421 25.1147 12.4761 25.5542 12.3638C25.9937 12.2515 26.4844 12.1953 27.0264 12.1953H28.6011ZM35.1709 9.0752V10.1152H30.8862V9.0752H35.1709ZM32.3364 7.14893H33.6914V15.0371C33.6914 15.3057 33.7329 15.5083 33.8159 15.645C33.8989 15.7817 34.0063 15.8721 34.1382 15.916C34.27 15.96 34.4116 15.9819 34.563 15.9819C34.6753 15.9819 34.7925 15.9722 34.9146 15.9526C35.0415 15.9282 35.1367 15.9087 35.2002 15.894L35.2075 17C35.1001 17.0342 34.9585 17.0659 34.7827 17.0952C34.6118 17.1294 34.4043 17.1465 34.1602 17.1465C33.8281 17.1465 33.5229 17.0806 33.2446 16.9487C32.9663 16.8169 32.7441 16.5972 32.5781 16.2896C32.417 15.9771 32.3364 15.5571 32.3364 15.0298V7.14893ZM40.0488 17.1465C39.4971 17.1465 38.9966 17.0537 38.5474 16.8682C38.103 16.6777 37.7197 16.4116 37.3975 16.0698C37.0801 15.728 36.8359 15.3228 36.665 14.854C36.4941 14.3853 36.4087 13.8726 36.4087 13.3159V13.0083C36.4087 12.3638 36.5039 11.79 36.6943 11.2871C36.8848 10.7793 37.1436 10.3496 37.4707 9.99805C37.7979 9.64648 38.1689 9.38037 38.584 9.19971C38.999 9.01904 39.4287 8.92871 39.873 8.92871C40.4395 8.92871 40.9277 9.02637 41.3379 9.22168C41.7529 9.41699 42.0923 9.69043 42.356 10.042C42.6196 10.3887 42.8149 10.7988 42.9419 11.2725C43.0688 11.7412 43.1323 12.2539 43.1323 12.8105V13.4185H37.2144V12.3125H41.7773V12.21C41.7578 11.8584 41.6846 11.5166 41.5576 11.1846C41.4355 10.8525 41.2402 10.5791 40.9717 10.3643C40.7031 10.1494 40.3369 10.042 39.873 10.042C39.5654 10.042 39.2822 10.1079 39.0234 10.2397C38.7646 10.3667 38.5425 10.5571 38.3569 10.811C38.1714 11.0649 38.0273 11.375 37.9248 11.7412C37.8223 12.1074 37.771 12.5298 37.771 13.0083V13.3159C37.771 13.6919 37.8223 14.0459 37.9248 14.3779C38.0322 14.7051 38.186 14.9932 38.3862 15.2422C38.5913 15.4912 38.8379 15.6865 39.126 15.8281C39.4189 15.9697 39.751 16.0405 40.1221 16.0405C40.6006 16.0405 41.0059 15.9429 41.3379 15.7476C41.6699 15.5522 41.9604 15.291 42.2095 14.9639L43.0298 15.6157C42.8589 15.8745 42.6416 16.1211 42.3779 16.3555C42.1143 16.5898 41.7896 16.7803 41.4038 16.9268C41.0229 17.0732 40.5713 17.1465 40.0488 17.1465Z" fill="#262626"/>
</svg>
