<svg width="62" height="24" viewBox="0 0 62 24" fill="none" xmlns="http://www.w3.org/2000/svg">
<g clip-path="url(#clip0_1_463)">
<path d="M24.6016 10.2578V12.0859H18.6641V10.2578H24.6016ZM19.3594 5.625V17H17.0156V5.625H19.3594ZM26.2734 5.625V17H23.9375V5.625H26.2734ZM27.8125 12.8594V12.6953C27.8125 12.0755 27.901 11.5052 28.0781 10.9844C28.2552 10.4583 28.513 10.0026 28.8516 9.61719C29.1901 9.23177 29.6068 8.93229 30.1016 8.71875C30.5964 8.5 31.1641 8.39062 31.8047 8.39062C32.4453 8.39062 33.0156 8.5 33.5156 8.71875C34.0156 8.93229 34.4349 9.23177 34.7734 9.61719C35.1172 10.0026 35.3776 10.4583 35.5547 10.9844C35.7318 11.5052 35.8203 12.0755 35.8203 12.6953V12.8594C35.8203 13.474 35.7318 14.0443 35.5547 14.5703C35.3776 15.0911 35.1172 15.5469 34.7734 15.9375C34.4349 16.3229 34.0182 16.6224 33.5234 16.8359C33.0286 17.0495 32.4609 17.1562 31.8203 17.1562C31.1797 17.1562 30.6094 17.0495 30.1094 16.8359C29.6146 16.6224 29.1953 16.3229 28.8516 15.9375C28.513 15.5469 28.2552 15.0911 28.0781 14.5703C27.901 14.0443 27.8125 13.474 27.8125 12.8594ZM30.0625 12.6953V12.8594C30.0625 13.2135 30.0938 13.5443 30.1562 13.8516C30.2188 14.1589 30.3177 14.4297 30.4531 14.6641C30.5938 14.8932 30.776 15.0729 31 15.2031C31.224 15.3333 31.4974 15.3984 31.8203 15.3984C32.1328 15.3984 32.401 15.3333 32.625 15.2031C32.849 15.0729 33.0286 14.8932 33.1641 14.6641C33.2995 14.4297 33.3984 14.1589 33.4609 13.8516C33.5286 13.5443 33.5625 13.2135 33.5625 12.8594V12.6953C33.5625 12.3516 33.5286 12.0286 33.4609 11.7266C33.3984 11.4193 33.2969 11.1484 33.1562 10.9141C33.0208 10.6745 32.8411 10.487 32.6172 10.3516C32.3932 10.2161 32.1224 10.1484 31.8047 10.1484C31.487 10.1484 31.2161 10.2161 30.9922 10.3516C30.7734 10.487 30.5938 10.6745 30.4531 10.9141C30.3177 11.1484 30.2188 11.4193 30.1562 11.7266C30.0938 12.0286 30.0625 12.3516 30.0625 12.6953ZM39.4531 10.2969V17H37.1953V8.54688H39.3125L39.4531 10.2969ZM39.1406 12.4766H38.5156C38.5156 11.888 38.5859 11.3464 38.7266 10.8516C38.8724 10.3516 39.0833 9.91927 39.3594 9.55469C39.6406 9.1849 39.987 8.89844 40.3984 8.69531C40.8099 8.49219 41.2865 8.39062 41.8281 8.39062C42.2031 8.39062 42.5469 8.44792 42.8594 8.5625C43.1719 8.67188 43.4401 8.84635 43.6641 9.08594C43.8932 9.32031 44.0703 9.6276 44.1953 10.0078C44.3203 10.3828 44.3828 10.8333 44.3828 11.3594V17H42.1328V11.6094C42.1328 11.224 42.0807 10.9271 41.9766 10.7188C41.8724 10.5104 41.724 10.3646 41.5312 10.2812C41.3438 10.1979 41.1172 10.1562 40.8516 10.1562C40.5599 10.1562 40.3047 10.2161 40.0859 10.3359C39.8724 10.4557 39.6953 10.6224 39.5547 10.8359C39.4141 11.0443 39.3099 11.2891 39.2422 11.5703C39.1745 11.8516 39.1406 12.1536 39.1406 12.4766ZM44.1719 12.2188L43.3672 12.3203C43.3672 11.7682 43.4349 11.2552 43.5703 10.7812C43.7109 10.3073 43.9167 9.89062 44.1875 9.53125C44.4635 9.17188 44.8047 8.89323 45.2109 8.69531C45.6172 8.49219 46.0859 8.39062 46.6172 8.39062C47.0234 8.39062 47.3932 8.45052 47.7266 8.57031C48.0599 8.6849 48.3438 8.86979 48.5781 9.125C48.8177 9.375 49 9.70312 49.125 10.1094C49.2552 10.5156 49.3203 11.013 49.3203 11.6016V17H47.0625V11.6016C47.0625 11.2109 47.0104 10.9141 46.9062 10.7109C46.8073 10.5026 46.6615 10.3594 46.4688 10.2812C46.2812 10.1979 46.0573 10.1562 45.7969 10.1562C45.526 10.1562 45.2891 10.2109 45.0859 10.3203C44.8828 10.4245 44.7135 10.5703 44.5781 10.7578C44.4427 10.9453 44.3411 11.1641 44.2734 11.4141C44.2057 11.6589 44.1719 11.9271 44.1719 12.2188ZM54.9531 17.1562C54.2969 17.1562 53.7083 17.0521 53.1875 16.8438C52.6667 16.6302 52.224 16.3359 51.8594 15.9609C51.5 15.5859 51.224 15.151 51.0312 14.6562C50.8385 14.1562 50.7422 13.625 50.7422 13.0625V12.75C50.7422 12.1094 50.8333 11.5234 51.0156 10.9922C51.1979 10.4609 51.4583 10 51.7969 9.60938C52.1406 9.21875 52.5573 8.91927 53.0469 8.71094C53.5365 8.4974 54.0885 8.39062 54.7031 8.39062C55.3021 8.39062 55.8333 8.48958 56.2969 8.6875C56.7604 8.88542 57.1484 9.16667 57.4609 9.53125C57.7786 9.89583 58.0182 10.3333 58.1797 10.8438C58.3411 11.349 58.4219 11.9115 58.4219 12.5312V13.4688H51.7031V11.9688H56.2109V11.7969C56.2109 11.4844 56.1536 11.2057 56.0391 10.9609C55.9297 10.7109 55.763 10.513 55.5391 10.3672C55.3151 10.2214 55.0286 10.1484 54.6797 10.1484C54.3828 10.1484 54.1276 10.2135 53.9141 10.3438C53.7005 10.474 53.526 10.6562 53.3906 10.8906C53.2604 11.125 53.1615 11.401 53.0938 11.7188C53.0312 12.0312 53 12.375 53 12.75V13.0625C53 13.401 53.0469 13.7135 53.1406 14C53.2396 14.2865 53.3776 14.5339 53.5547 14.7422C53.737 14.9505 53.9557 15.112 54.2109 15.2266C54.4714 15.3411 54.7656 15.3984 55.0938 15.3984C55.5 15.3984 55.8776 15.3203 56.2266 15.1641C56.5807 15.0026 56.8854 14.7604 57.1406 14.4375L58.2344 15.625C58.0573 15.8802 57.8151 16.125 57.5078 16.3594C57.2057 16.5938 56.8411 16.7865 56.4141 16.9375C55.987 17.0833 55.5 17.1562 54.9531 17.1562Z" fill="#262626"/>
</g>
<defs>
<clipPath id="clip0_1_463">
<rect width="61.3594" height="24" fill="white"/>
</clipPath>
</defs>
</svg>
