<svg width="68" height="15" viewBox="0 0 68 15" fill="none" xmlns="http://www.w3.org/2000/svg">
<path d="M0.68457 0.335938H2.0542L5.54785 9.02979L9.03418 0.335938H10.4111L6.0752 11H5.00586L0.68457 0.335938ZM0.237793 0.335938H1.44629L1.64404 6.83984V11H0.237793V0.335938ZM9.64209 0.335938H10.8506V11H9.44434V6.83984L9.64209 0.335938ZM16.417 11.1465C15.8652 11.1465 15.3647 11.0537 14.9155 10.8682C14.4712 10.6777 14.0879 10.4116 13.7656 10.0698C13.4482 9.72803 13.2041 9.32275 13.0332 8.854C12.8623 8.38525 12.7769 7.87256 12.7769 7.31592V7.0083C12.7769 6.36377 12.8721 5.79004 13.0625 5.28711C13.2529 4.7793 13.5117 4.34961 13.8389 3.99805C14.166 3.64648 14.5371 3.38037 14.9521 3.19971C15.3672 3.01904 15.7969 2.92871 16.2412 2.92871C16.8076 2.92871 17.2959 3.02637 17.7061 3.22168C18.1211 3.41699 18.4604 3.69043 18.7241 4.04199C18.9878 4.38867 19.1831 4.79883 19.3101 5.27246C19.437 5.74121 19.5005 6.25391 19.5005 6.81055V7.41846H13.5825V6.3125H18.1455V6.20996C18.126 5.8584 18.0527 5.5166 17.9258 5.18457C17.8037 4.85254 17.6084 4.5791 17.3398 4.36426C17.0713 4.14941 16.7051 4.04199 16.2412 4.04199C15.9336 4.04199 15.6504 4.10791 15.3916 4.23975C15.1328 4.3667 14.9106 4.55713 14.7251 4.81104C14.5396 5.06494 14.3955 5.375 14.293 5.74121C14.1904 6.10742 14.1392 6.52979 14.1392 7.0083V7.31592C14.1392 7.69189 14.1904 8.0459 14.293 8.37793C14.4004 8.70508 14.5542 8.99316 14.7544 9.24219C14.9595 9.49121 15.2061 9.68652 15.4941 9.82812C15.7871 9.96973 16.1191 10.0405 16.4902 10.0405C16.9688 10.0405 17.374 9.94287 17.7061 9.74756C18.0381 9.55225 18.3286 9.29102 18.5776 8.96387L19.3979 9.61572C19.2271 9.87451 19.0098 10.1211 18.7461 10.3555C18.4824 10.5898 18.1577 10.7803 17.772 10.9268C17.3911 11.0732 16.9395 11.1465 16.417 11.1465ZM25.6968 8.89795C25.6968 8.70264 25.6528 8.52197 25.5649 8.35596C25.4819 8.18506 25.3086 8.03125 25.0449 7.89453C24.7861 7.75293 24.3955 7.63086 23.873 7.52832C23.4336 7.43555 23.0356 7.32568 22.6792 7.19873C22.3276 7.07178 22.0273 6.91797 21.7783 6.7373C21.5342 6.55664 21.3462 6.34424 21.2144 6.1001C21.0825 5.85596 21.0166 5.57031 21.0166 5.24316C21.0166 4.93066 21.085 4.63525 21.2217 4.35693C21.3633 4.07861 21.561 3.83203 21.8149 3.61719C22.0737 3.40234 22.3838 3.23389 22.7451 3.11182C23.1064 2.98975 23.5093 2.92871 23.9536 2.92871C24.5884 2.92871 25.1304 3.04102 25.5796 3.26562C26.0288 3.49023 26.373 3.79053 26.6123 4.1665C26.8516 4.5376 26.9712 4.9502 26.9712 5.4043H25.6162C25.6162 5.18457 25.5503 4.97217 25.4185 4.76709C25.2915 4.55713 25.1035 4.38379 24.8545 4.24707C24.6104 4.11035 24.3101 4.04199 23.9536 4.04199C23.5776 4.04199 23.2725 4.10059 23.0381 4.21777C22.8086 4.33008 22.6401 4.47412 22.5327 4.6499C22.4302 4.82568 22.3789 5.01123 22.3789 5.20654C22.3789 5.35303 22.4033 5.48486 22.4521 5.60205C22.5059 5.71436 22.5986 5.81934 22.7305 5.91699C22.8623 6.00977 23.0479 6.09766 23.2871 6.18066C23.5264 6.26367 23.8315 6.34668 24.2026 6.42969C24.8521 6.57617 25.3867 6.75195 25.8066 6.95703C26.2266 7.16211 26.5391 7.41357 26.7441 7.71143C26.9492 8.00928 27.0518 8.37061 27.0518 8.79541C27.0518 9.14209 26.9785 9.45947 26.832 9.74756C26.6904 10.0356 26.4829 10.2847 26.2095 10.4946C25.9409 10.6997 25.6187 10.8608 25.2427 10.978C24.8716 11.0903 24.4541 11.1465 23.9902 11.1465C23.292 11.1465 22.7012 11.022 22.2178 10.7729C21.7344 10.5239 21.3682 10.2017 21.1191 9.80615C20.8701 9.41064 20.7456 8.99316 20.7456 8.55371H22.1079C22.1274 8.9248 22.2349 9.22021 22.4302 9.43994C22.6255 9.65479 22.8647 9.80859 23.1479 9.90137C23.4312 9.98926 23.7119 10.0332 23.9902 10.0332C24.3613 10.0332 24.6714 9.98438 24.9204 9.88672C25.1743 9.78906 25.3672 9.65479 25.499 9.48389C25.6309 9.31299 25.6968 9.11768 25.6968 8.89795ZM33.4458 8.89795C33.4458 8.70264 33.4019 8.52197 33.314 8.35596C33.231 8.18506 33.0576 8.03125 32.7939 7.89453C32.5352 7.75293 32.1445 7.63086 31.6221 7.52832C31.1826 7.43555 30.7847 7.32568 30.4282 7.19873C30.0767 7.07178 29.7764 6.91797 29.5273 6.7373C29.2832 6.55664 29.0952 6.34424 28.9634 6.1001C28.8315 5.85596 28.7656 5.57031 28.7656 5.24316C28.7656 4.93066 28.834 4.63525 28.9707 4.35693C29.1123 4.07861 29.3101 3.83203 29.564 3.61719C29.8228 3.40234 30.1328 3.23389 30.4941 3.11182C30.8555 2.98975 31.2583 2.92871 31.7026 2.92871C32.3374 2.92871 32.8794 3.04102 33.3286 3.26562C33.7778 3.49023 34.1221 3.79053 34.3613 4.1665C34.6006 4.5376 34.7202 4.9502 34.7202 5.4043H33.3652C33.3652 5.18457 33.2993 4.97217 33.1675 4.76709C33.0405 4.55713 32.8525 4.38379 32.6035 4.24707C32.3594 4.11035 32.0591 4.04199 31.7026 4.04199C31.3267 4.04199 31.0215 4.10059 30.7871 4.21777C30.5576 4.33008 30.3892 4.47412 30.2817 4.6499C30.1792 4.82568 30.1279 5.01123 30.1279 5.20654C30.1279 5.35303 30.1523 5.48486 30.2012 5.60205C30.2549 5.71436 30.3477 5.81934 30.4795 5.91699C30.6113 6.00977 30.7969 6.09766 31.0361 6.18066C31.2754 6.26367 31.5806 6.34668 31.9517 6.42969C32.6011 6.57617 33.1357 6.75195 33.5557 6.95703C33.9756 7.16211 34.2881 7.41357 34.4932 7.71143C34.6982 8.00928 34.8008 8.37061 34.8008 8.79541C34.8008 9.14209 34.7275 9.45947 34.5811 9.74756C34.4395 10.0356 34.2319 10.2847 33.9585 10.4946C33.6899 10.6997 33.3677 10.8608 32.9917 10.978C32.6206 11.0903 32.2031 11.1465 31.7393 11.1465C31.041 11.1465 30.4502 11.022 29.9668 10.7729C29.4834 10.5239 29.1172 10.2017 28.8682 9.80615C28.6191 9.41064 28.4946 8.99316 28.4946 8.55371H29.8569C29.8765 8.9248 29.9839 9.22021 30.1792 9.43994C30.3745 9.65479 30.6138 9.80859 30.897 9.90137C31.1802 9.98926 31.4609 10.0332 31.7393 10.0332C32.1104 10.0332 32.4204 9.98438 32.6694 9.88672C32.9233 9.78906 33.1162 9.65479 33.248 9.48389C33.3799 9.31299 33.4458 9.11768 33.4458 8.89795ZM41.2534 9.64502V5.56543C41.2534 5.25293 41.1899 4.98193 41.063 4.75244C40.9409 4.51807 40.7554 4.3374 40.5063 4.21045C40.2573 4.0835 39.9497 4.02002 39.5835 4.02002C39.2417 4.02002 38.9414 4.07861 38.6826 4.1958C38.4287 4.31299 38.2285 4.4668 38.082 4.65723C37.9404 4.84766 37.8696 5.05273 37.8696 5.27246H36.5146C36.5146 4.98926 36.5879 4.7085 36.7344 4.43018C36.8809 4.15186 37.0908 3.90039 37.3643 3.67578C37.6426 3.44629 37.9746 3.26562 38.3604 3.13379C38.751 2.99707 39.1855 2.92871 39.6641 2.92871C40.2402 2.92871 40.748 3.02637 41.1875 3.22168C41.6318 3.41699 41.9785 3.7124 42.2275 4.10791C42.4814 4.49854 42.6084 4.98926 42.6084 5.58008V9.27148C42.6084 9.53516 42.6304 9.81592 42.6743 10.1138C42.7231 10.4116 42.7939 10.668 42.8867 10.8828V11H41.4731C41.4048 10.8438 41.3511 10.6362 41.312 10.3774C41.2729 10.1138 41.2534 9.86963 41.2534 9.64502ZM41.4878 6.19531L41.5024 7.14746H40.1328C39.7471 7.14746 39.4028 7.1792 39.1001 7.24268C38.7974 7.30127 38.5435 7.3916 38.3384 7.51367C38.1333 7.63574 37.9771 7.78955 37.8696 7.9751C37.7622 8.15576 37.7085 8.36816 37.7085 8.6123C37.7085 8.86133 37.7646 9.08838 37.877 9.29346C37.9893 9.49854 38.1577 9.66211 38.3823 9.78418C38.6118 9.90137 38.8926 9.95996 39.2246 9.95996C39.6396 9.95996 40.0059 9.87207 40.3232 9.69629C40.6406 9.52051 40.8921 9.30566 41.0776 9.05176C41.2681 8.79785 41.3706 8.55127 41.3853 8.31201L41.9639 8.96387C41.9297 9.16895 41.8369 9.396 41.6855 9.64502C41.5342 9.89404 41.3315 10.1333 41.0776 10.3628C40.8286 10.5874 40.5308 10.7754 40.1841 10.9268C39.8423 11.0732 39.4565 11.1465 39.0269 11.1465C38.4897 11.1465 38.0186 11.0415 37.6133 10.8315C37.2129 10.6216 36.9004 10.3408 36.6758 9.98926C36.4561 9.63281 36.3462 9.23486 36.3462 8.79541C36.3462 8.37061 36.4292 7.99707 36.5952 7.6748C36.7612 7.34766 37.0005 7.07666 37.313 6.86182C37.6255 6.64209 38.0015 6.47607 38.4409 6.36377C38.8804 6.25146 39.3711 6.19531 39.9131 6.19531H41.4878ZM49.874 3.0752H51.1045V10.8315C51.1045 11.5298 50.9629 12.1255 50.6797 12.6187C50.3965 13.1118 50.001 13.4854 49.4932 13.7393C48.9902 13.998 48.4092 14.1274 47.75 14.1274C47.4766 14.1274 47.1543 14.0835 46.7832 13.9956C46.417 13.9126 46.0557 13.7686 45.6992 13.5635C45.3477 13.3633 45.0522 13.0923 44.813 12.7505L45.5234 11.9448C45.8555 12.3452 46.2021 12.6235 46.5635 12.7798C46.9297 12.936 47.291 13.0142 47.6475 13.0142C48.0771 13.0142 48.4482 12.9336 48.7607 12.7725C49.0732 12.6113 49.3149 12.3721 49.4858 12.0547C49.6616 11.7422 49.7495 11.3564 49.7495 10.8975V4.81836L49.874 3.0752ZM44.4175 7.12549V6.97168C44.4175 6.36621 44.4883 5.81689 44.6299 5.32373C44.7764 4.82568 44.9839 4.39844 45.2524 4.04199C45.5259 3.68555 45.8555 3.41211 46.2412 3.22168C46.627 3.02637 47.0615 2.92871 47.5449 2.92871C48.043 2.92871 48.4775 3.0166 48.8486 3.19238C49.2246 3.36328 49.542 3.61475 49.8008 3.94678C50.0645 4.27393 50.272 4.66943 50.4233 5.1333C50.5747 5.59717 50.6797 6.12207 50.7383 6.70801V7.38184C50.6846 7.96289 50.5796 8.48535 50.4233 8.94922C50.272 9.41309 50.0645 9.80859 49.8008 10.1357C49.542 10.4629 49.2246 10.7144 48.8486 10.8901C48.4727 11.061 48.0332 11.1465 47.5303 11.1465C47.0566 11.1465 46.627 11.0464 46.2412 10.8462C45.8604 10.646 45.5332 10.3652 45.2598 10.0039C44.9863 9.64258 44.7764 9.21777 44.6299 8.72949C44.4883 8.23633 44.4175 7.70166 44.4175 7.12549ZM45.7725 6.97168V7.12549C45.7725 7.521 45.8115 7.89209 45.8896 8.23877C45.9727 8.58545 46.0972 8.89062 46.2632 9.1543C46.4341 9.41797 46.6514 9.62549 46.915 9.77686C47.1787 9.92334 47.4937 9.99658 47.8599 9.99658C48.3091 9.99658 48.6802 9.90137 48.9731 9.71094C49.2661 9.52051 49.498 9.26904 49.6689 8.95654C49.8447 8.64404 49.9814 8.30469 50.0791 7.93848V6.17334C50.0254 5.90479 49.9424 5.646 49.8301 5.39697C49.7227 5.14307 49.5811 4.91846 49.4053 4.72314C49.2344 4.52295 49.022 4.36426 48.7681 4.24707C48.5142 4.12988 48.2163 4.07129 47.8745 4.07129C47.5034 4.07129 47.1836 4.14941 46.915 4.30566C46.6514 4.45703 46.4341 4.66699 46.2632 4.93555C46.0972 5.19922 45.9727 5.50684 45.8896 5.8584C45.8115 6.20508 45.7725 6.57617 45.7725 6.97168ZM56.4512 11.1465C55.8994 11.1465 55.3989 11.0537 54.9497 10.8682C54.5054 10.6777 54.1221 10.4116 53.7998 10.0698C53.4824 9.72803 53.2383 9.32275 53.0674 8.854C52.8965 8.38525 52.811 7.87256 52.811 7.31592V7.0083C52.811 6.36377 52.9062 5.79004 53.0967 5.28711C53.2871 4.7793 53.5459 4.34961 53.873 3.99805C54.2002 3.64648 54.5713 3.38037 54.9863 3.19971C55.4014 3.01904 55.8311 2.92871 56.2754 2.92871C56.8418 2.92871 57.3301 3.02637 57.7402 3.22168C58.1553 3.41699 58.4946 3.69043 58.7583 4.04199C59.022 4.38867 59.2173 4.79883 59.3442 5.27246C59.4712 5.74121 59.5347 6.25391 59.5347 6.81055V7.41846H53.6167V6.3125H58.1797V6.20996C58.1602 5.8584 58.0869 5.5166 57.96 5.18457C57.8379 4.85254 57.6426 4.5791 57.374 4.36426C57.1055 4.14941 56.7393 4.04199 56.2754 4.04199C55.9678 4.04199 55.6846 4.10791 55.4258 4.23975C55.167 4.3667 54.9448 4.55713 54.7593 4.81104C54.5737 5.06494 54.4297 5.375 54.3271 5.74121C54.2246 6.10742 54.1733 6.52979 54.1733 7.0083V7.31592C54.1733 7.69189 54.2246 8.0459 54.3271 8.37793C54.4346 8.70508 54.5884 8.99316 54.7886 9.24219C54.9937 9.49121 55.2402 9.68652 55.5283 9.82812C55.8213 9.96973 56.1533 10.0405 56.5244 10.0405C57.0029 10.0405 57.4082 9.94287 57.7402 9.74756C58.0723 9.55225 58.3628 9.29102 58.6118 8.96387L59.4321 9.61572C59.2612 9.87451 59.0439 10.1211 58.7803 10.3555C58.5166 10.5898 58.1919 10.7803 57.8062 10.9268C57.4253 11.0732 56.9736 11.1465 56.4512 11.1465ZM65.731 8.89795C65.731 8.70264 65.687 8.52197 65.5991 8.35596C65.5161 8.18506 65.3428 8.03125 65.0791 7.89453C64.8203 7.75293 64.4297 7.63086 63.9072 7.52832C63.4678 7.43555 63.0698 7.32568 62.7134 7.19873C62.3618 7.07178 62.0615 6.91797 61.8125 6.7373C61.5684 6.55664 61.3804 6.34424 61.2485 6.1001C61.1167 5.85596 61.0508 5.57031 61.0508 5.24316C61.0508 4.93066 61.1191 4.63525 61.2559 4.35693C61.3975 4.07861 61.5952 3.83203 61.8491 3.61719C62.1079 3.40234 62.418 3.23389 62.7793 3.11182C63.1406 2.98975 63.5435 2.92871 63.9878 2.92871C64.6226 2.92871 65.1646 3.04102 65.6138 3.26562C66.063 3.49023 66.4072 3.79053 66.6465 4.1665C66.8857 4.5376 67.0054 4.9502 67.0054 5.4043H65.6504C65.6504 5.18457 65.5845 4.97217 65.4526 4.76709C65.3257 4.55713 65.1377 4.38379 64.8887 4.24707C64.6445 4.11035 64.3442 4.04199 63.9878 4.04199C63.6118 4.04199 63.3066 4.10059 63.0723 4.21777C62.8428 4.33008 62.6743 4.47412 62.5669 4.6499C62.4644 4.82568 62.4131 5.01123 62.4131 5.20654C62.4131 5.35303 62.4375 5.48486 62.4863 5.60205C62.54 5.71436 62.6328 5.81934 62.7646 5.91699C62.8965 6.00977 63.082 6.09766 63.3213 6.18066C63.5605 6.26367 63.8657 6.34668 64.2368 6.42969C64.8862 6.57617 65.4209 6.75195 65.8408 6.95703C66.2607 7.16211 66.5732 7.41357 66.7783 7.71143C66.9834 8.00928 67.0859 8.37061 67.0859 8.79541C67.0859 9.14209 67.0127 9.45947 66.8662 9.74756C66.7246 10.0356 66.5171 10.2847 66.2437 10.4946C65.9751 10.6997 65.6528 10.8608 65.2769 10.978C64.9058 11.0903 64.4883 11.1465 64.0244 11.1465C63.3262 11.1465 62.7354 11.022 62.252 10.7729C61.7686 10.5239 61.4023 10.2017 61.1533 9.80615C60.9043 9.41064 60.7798 8.99316 60.7798 8.55371H62.1421C62.1616 8.9248 62.269 9.22021 62.4644 9.43994C62.6597 9.65479 62.8989 9.80859 63.1821 9.90137C63.4653 9.98926 63.7461 10.0332 64.0244 10.0332C64.3955 10.0332 64.7056 9.98438 64.9546 9.88672C65.2085 9.78906 65.4014 9.65479 65.5332 9.48389C65.665 9.31299 65.731 9.11768 65.731 8.89795Z" fill="#262626"/>
</svg>
