<svg width="36" height="13" viewBox="0 0 36 13" fill="none" xmlns="http://www.w3.org/2000/svg">
<path d="M0.796875 0.625H2.25781L5.98438 9.89844L9.70312 0.625H11.1719L6.54688 12H5.40625L0.796875 0.625ZM0.320312 0.625H1.60938L1.82031 7.5625V12H0.320312V0.625ZM10.3516 0.625H11.6406V12H10.1406V7.5625L10.3516 0.625ZM13.6875 7.86719V7.6875C13.6875 7.07812 13.776 6.51302 13.9531 5.99219C14.1302 5.46615 14.3854 5.01042 14.7188 4.625C15.0521 4.23438 15.4557 3.93229 15.9297 3.71875C16.4036 3.5 16.9349 3.39062 17.5234 3.39062C18.1172 3.39062 18.651 3.5 19.125 3.71875C19.6042 3.93229 20.0104 4.23438 20.3438 4.625C20.6823 5.01042 20.9401 5.46615 21.1172 5.99219C21.2943 6.51302 21.3828 7.07812 21.3828 7.6875V7.86719C21.3828 8.47656 21.2943 9.04167 21.1172 9.5625C20.9401 10.0833 20.6823 10.5391 20.3438 10.9297C20.0104 11.3151 19.6068 11.6172 19.1328 11.8359C18.6641 12.0495 18.1328 12.1562 17.5391 12.1562C16.9453 12.1562 16.4115 12.0495 15.9375 11.8359C15.4635 11.6172 15.0573 11.3151 14.7188 10.9297C14.3854 10.5391 14.1302 10.0833 13.9531 9.5625C13.776 9.04167 13.6875 8.47656 13.6875 7.86719ZM15.1328 7.6875V7.86719C15.1328 8.28906 15.1823 8.6875 15.2812 9.0625C15.3802 9.43229 15.5286 9.76042 15.7266 10.0469C15.9297 10.3333 16.1823 10.5599 16.4844 10.7266C16.7865 10.888 17.138 10.9688 17.5391 10.9688C17.9349 10.9688 18.2812 10.888 18.5781 10.7266C18.8802 10.5599 19.1302 10.3333 19.3281 10.0469C19.526 9.76042 19.6745 9.43229 19.7734 9.0625C19.8776 8.6875 19.9297 8.28906 19.9297 7.86719V7.6875C19.9297 7.27083 19.8776 6.8776 19.7734 6.50781C19.6745 6.13281 19.5234 5.80208 19.3203 5.51562C19.1224 5.22396 18.8724 4.99479 18.5703 4.82812C18.2734 4.66146 17.9245 4.57812 17.5234 4.57812C17.1276 4.57812 16.7786 4.66146 16.4766 4.82812C16.1797 4.99479 15.9297 5.22396 15.7266 5.51562C15.5286 5.80208 15.3802 6.13281 15.2812 6.50781C15.1823 6.8776 15.1328 7.27083 15.1328 7.6875ZM24.6406 4.875V12H23.1953V3.54688H24.6016L24.6406 4.875ZM27.2812 3.5L27.2734 4.84375C27.1536 4.81771 27.0391 4.80208 26.9297 4.79688C26.8255 4.78646 26.7057 4.78125 26.5703 4.78125C26.237 4.78125 25.9427 4.83333 25.6875 4.9375C25.4323 5.04167 25.2161 5.1875 25.0391 5.375C24.862 5.5625 24.7214 5.78646 24.6172 6.04688C24.5182 6.30208 24.4531 6.58333 24.4219 6.89062L24.0156 7.125C24.0156 6.61458 24.0651 6.13542 24.1641 5.6875C24.2682 5.23958 24.4271 4.84375 24.6406 4.5C24.8542 4.15104 25.125 3.88021 25.4531 3.6875C25.7865 3.48958 26.1823 3.39062 26.6406 3.39062C26.7448 3.39062 26.8646 3.40365 27 3.42969C27.1354 3.45052 27.2292 3.47396 27.2812 3.5ZM31.9688 12.1562C31.3802 12.1562 30.8464 12.0573 30.3672 11.8594C29.8932 11.6562 29.4844 11.3724 29.1406 11.0078C28.8021 10.6432 28.5417 10.2109 28.3594 9.71094C28.1771 9.21094 28.0859 8.66406 28.0859 8.07031V7.74219C28.0859 7.05469 28.1875 6.44271 28.3906 5.90625C28.5938 5.36458 28.8698 4.90625 29.2188 4.53125C29.5677 4.15625 29.9635 3.8724 30.4062 3.67969C30.849 3.48698 31.3073 3.39062 31.7812 3.39062C32.3854 3.39062 32.9062 3.49479 33.3438 3.70312C33.7865 3.91146 34.1484 4.20312 34.4297 4.57812C34.7109 4.94792 34.9193 5.38542 35.0547 5.89062C35.1901 6.39062 35.2578 6.9375 35.2578 7.53125V8.17969H28.9453V7H33.8125V6.89062C33.7917 6.51562 33.7135 6.15104 33.5781 5.79688C33.4479 5.44271 33.2396 5.15104 32.9531 4.92188C32.6667 4.69271 32.276 4.57812 31.7812 4.57812C31.4531 4.57812 31.151 4.64844 30.875 4.78906C30.599 4.92448 30.362 5.1276 30.1641 5.39844C29.9661 5.66927 29.8125 6 29.7031 6.39062C29.5938 6.78125 29.5391 7.23177 29.5391 7.74219V8.07031C29.5391 8.47135 29.5938 8.84896 29.7031 9.20312C29.8177 9.55208 29.9818 9.85938 30.1953 10.125C30.4141 10.3906 30.6771 10.599 30.9844 10.75C31.2969 10.901 31.651 10.9766 32.0469 10.9766C32.5573 10.9766 32.9896 10.8724 33.3438 10.6641C33.6979 10.4557 34.0078 10.1771 34.2734 9.82812L35.1484 10.5234C34.9661 10.7995 34.7344 11.0625 34.4531 11.3125C34.1719 11.5625 33.8255 11.7656 33.4141 11.9219C33.0078 12.0781 32.526 12.1562 31.9688 12.1562Z" fill="#262626"/>
</svg>
