<svg width="90" height="24" viewBox="0 0 90 24" fill="none" xmlns="http://www.w3.org/2000/svg">
<path d="M9.44092 6.33594V17H8.02002L2.65137 8.7749V17H1.23779V6.33594H2.65137L8.04199 14.583V6.33594H9.44092ZM11.3818 13.1255V12.957C11.3818 12.3857 11.4648 11.856 11.6309 11.3677C11.7969 10.8745 12.0361 10.4473 12.3486 10.0859C12.6611 9.71973 13.0396 9.43652 13.4839 9.23633C13.9282 9.03125 14.4263 8.92871 14.978 8.92871C15.5347 8.92871 16.0352 9.03125 16.4795 9.23633C16.9287 9.43652 17.3096 9.71973 17.6221 10.0859C17.9395 10.4473 18.1812 10.8745 18.3472 11.3677C18.5132 11.856 18.5962 12.3857 18.5962 12.957V13.1255C18.5962 13.6968 18.5132 14.2266 18.3472 14.7148C18.1812 15.2031 17.9395 15.6304 17.6221 15.9966C17.3096 16.3579 16.9312 16.6411 16.4868 16.8462C16.0474 17.0464 15.5493 17.1465 14.9927 17.1465C14.436 17.1465 13.9355 17.0464 13.4912 16.8462C13.0469 16.6411 12.666 16.3579 12.3486 15.9966C12.0361 15.6304 11.7969 15.2031 11.6309 14.7148C11.4648 14.2266 11.3818 13.6968 11.3818 13.1255ZM12.7368 12.957V13.1255C12.7368 13.521 12.7832 13.8945 12.876 14.2461C12.9688 14.5928 13.1079 14.9004 13.2935 15.1689C13.4839 15.4375 13.7207 15.6499 14.0039 15.8062C14.2871 15.9575 14.6167 16.0332 14.9927 16.0332C15.3638 16.0332 15.6885 15.9575 15.9668 15.8062C16.25 15.6499 16.4844 15.4375 16.6699 15.1689C16.8555 14.9004 16.9946 14.5928 17.0874 14.2461C17.1851 13.8945 17.2339 13.521 17.2339 13.1255V12.957C17.2339 12.5664 17.1851 12.1978 17.0874 11.8511C16.9946 11.4995 16.853 11.1895 16.6626 10.9209C16.4771 10.6475 16.2427 10.4326 15.9595 10.2764C15.6812 10.1201 15.354 10.042 14.978 10.042C14.6069 10.042 14.2798 10.1201 13.9966 10.2764C13.7183 10.4326 13.4839 10.6475 13.2935 10.9209C13.1079 11.1895 12.9688 11.4995 12.876 11.8511C12.7832 12.1978 12.7368 12.5664 12.7368 12.957ZM23.6133 9.0752V10.1152H19.3286V9.0752H23.6133ZM20.7788 7.14893H22.1338V15.0371C22.1338 15.3057 22.1753 15.5083 22.2583 15.645C22.3413 15.7817 22.4487 15.8721 22.5806 15.916C22.7124 15.96 22.854 15.9819 23.0054 15.9819C23.1177 15.9819 23.2349 15.9722 23.3569 15.9526C23.4839 15.9282 23.5791 15.9087 23.6426 15.894L23.6499 17C23.5425 17.0342 23.4009 17.0659 23.2251 17.0952C23.0542 17.1294 22.8467 17.1465 22.6025 17.1465C22.2705 17.1465 21.9653 17.0806 21.687 16.9487C21.4087 16.8169 21.1865 16.5972 21.0205 16.2896C20.8594 15.9771 20.7788 15.5571 20.7788 15.0298V7.14893ZM26.6748 9.0752V17H25.3125V9.0752H26.6748ZM25.21 6.97314C25.21 6.75342 25.2759 6.56787 25.4077 6.4165C25.5444 6.26514 25.7446 6.18945 26.0083 6.18945C26.2671 6.18945 26.4648 6.26514 26.6016 6.4165C26.7432 6.56787 26.814 6.75342 26.814 6.97314C26.814 7.18311 26.7432 7.36377 26.6016 7.51514C26.4648 7.66162 26.2671 7.73486 26.0083 7.73486C25.7446 7.73486 25.5444 7.66162 25.4077 7.51514C25.2759 7.36377 25.21 7.18311 25.21 6.97314ZM30.6592 17H29.3042V8.38672C29.3042 7.78613 29.4214 7.27832 29.6558 6.86328C29.8901 6.44824 30.2246 6.1333 30.6592 5.91846C31.0938 5.70361 31.6089 5.59619 32.2046 5.59619C32.5562 5.59619 32.9004 5.64014 33.2373 5.72803C33.5742 5.81104 33.9209 5.91602 34.2773 6.04297L34.0503 7.18555C33.8257 7.09766 33.5645 7.01465 33.2666 6.93652C32.9736 6.85352 32.6514 6.81201 32.2998 6.81201C31.7188 6.81201 31.2988 6.94385 31.04 7.20752C30.7861 7.46631 30.6592 7.85938 30.6592 8.38672V17ZM32.2778 9.0752V10.1152H28.0518V9.0752H32.2778ZM34.9438 9.0752V17H33.5889V9.0752H34.9438ZM40.3418 16.0332C40.6641 16.0332 40.9619 15.9673 41.2354 15.8354C41.5088 15.7036 41.7334 15.5229 41.9092 15.2935C42.085 15.0591 42.1851 14.793 42.2095 14.4951H43.4985C43.4741 14.9639 43.3154 15.4009 43.0225 15.8062C42.7344 16.2065 42.356 16.5312 41.8872 16.7803C41.4185 17.0244 40.9033 17.1465 40.3418 17.1465C39.7461 17.1465 39.2261 17.0415 38.7817 16.8315C38.3423 16.6216 37.9761 16.3335 37.6831 15.9673C37.395 15.6011 37.1777 15.1812 37.0312 14.7075C36.8896 14.229 36.8188 13.7236 36.8188 13.1914V12.8838C36.8188 12.3516 36.8896 11.8486 37.0312 11.375C37.1777 10.8965 37.395 10.4741 37.6831 10.1079C37.9761 9.7417 38.3423 9.45361 38.7817 9.24365C39.2261 9.03369 39.7461 8.92871 40.3418 8.92871C40.9619 8.92871 41.5039 9.05566 41.9678 9.30957C42.4316 9.55859 42.7954 9.90039 43.0591 10.335C43.3276 10.7646 43.4741 11.2529 43.4985 11.7998H42.2095C42.1851 11.4727 42.0923 11.1772 41.9312 10.9136C41.7749 10.6499 41.5601 10.4399 41.2866 10.2837C41.0181 10.1226 40.7031 10.042 40.3418 10.042C39.9268 10.042 39.5776 10.125 39.2944 10.291C39.0161 10.4521 38.7939 10.6719 38.6279 10.9502C38.4668 11.2236 38.3496 11.5288 38.2764 11.8657C38.208 12.1978 38.1738 12.5371 38.1738 12.8838V13.1914C38.1738 13.5381 38.208 13.8799 38.2764 14.2168C38.3447 14.5537 38.4595 14.8589 38.6206 15.1323C38.7866 15.4058 39.0088 15.6255 39.2871 15.7915C39.5703 15.9526 39.9219 16.0332 40.3418 16.0332ZM49.6948 15.645V11.5654C49.6948 11.2529 49.6313 10.9819 49.5044 10.7524C49.3823 10.5181 49.1968 10.3374 48.9478 10.2104C48.6987 10.0835 48.3911 10.02 48.0249 10.02C47.6831 10.02 47.3828 10.0786 47.124 10.1958C46.8701 10.313 46.6699 10.4668 46.5234 10.6572C46.3818 10.8477 46.311 11.0527 46.311 11.2725H44.9561C44.9561 10.9893 45.0293 10.7085 45.1758 10.4302C45.3223 10.1519 45.5322 9.90039 45.8057 9.67578C46.084 9.44629 46.416 9.26562 46.8018 9.13379C47.1924 8.99707 47.627 8.92871 48.1055 8.92871C48.6816 8.92871 49.1895 9.02637 49.6289 9.22168C50.0732 9.41699 50.4199 9.7124 50.6689 10.1079C50.9229 10.4985 51.0498 10.9893 51.0498 11.5801V15.2715C51.0498 15.5352 51.0718 15.8159 51.1157 16.1138C51.1646 16.4116 51.2354 16.668 51.3281 16.8828V17H49.9146C49.8462 16.8438 49.7925 16.6362 49.7534 16.3774C49.7144 16.1138 49.6948 15.8696 49.6948 15.645ZM49.9292 12.1953L49.9438 13.1475H48.5742C48.1885 13.1475 47.8442 13.1792 47.5415 13.2427C47.2388 13.3013 46.9849 13.3916 46.7798 13.5137C46.5747 13.6357 46.4185 13.7896 46.311 13.9751C46.2036 14.1558 46.1499 14.3682 46.1499 14.6123C46.1499 14.8613 46.2061 15.0884 46.3184 15.2935C46.4307 15.4985 46.5991 15.6621 46.8237 15.7842C47.0532 15.9014 47.334 15.96 47.666 15.96C48.0811 15.96 48.4473 15.8721 48.7646 15.6963C49.082 15.5205 49.3335 15.3057 49.519 15.0518C49.7095 14.7979 49.812 14.5513 49.8267 14.312L50.4053 14.9639C50.3711 15.1689 50.2783 15.396 50.127 15.645C49.9756 15.894 49.7729 16.1333 49.519 16.3628C49.27 16.5874 48.9722 16.7754 48.6255 16.9268C48.2837 17.0732 47.8979 17.1465 47.4683 17.1465C46.9312 17.1465 46.46 17.0415 46.0547 16.8315C45.6543 16.6216 45.3418 16.3408 45.1172 15.9893C44.8975 15.6328 44.7876 15.2349 44.7876 14.7954C44.7876 14.3706 44.8706 13.9971 45.0366 13.6748C45.2026 13.3477 45.4419 13.0767 45.7544 12.8618C46.0669 12.6421 46.4429 12.4761 46.8823 12.3638C47.3218 12.2515 47.8125 12.1953 48.3545 12.1953H49.9292ZM56.499 9.0752V10.1152H52.2144V9.0752H56.499ZM53.6646 7.14893H55.0195V15.0371C55.0195 15.3057 55.061 15.5083 55.144 15.645C55.2271 15.7817 55.3345 15.8721 55.4663 15.916C55.5981 15.96 55.7397 15.9819 55.8911 15.9819C56.0034 15.9819 56.1206 15.9722 56.2427 15.9526C56.3696 15.9282 56.4648 15.9087 56.5283 15.894L56.5356 17C56.4282 17.0342 56.2866 17.0659 56.1108 17.0952C55.9399 17.1294 55.7324 17.1465 55.4883 17.1465C55.1562 17.1465 54.8511 17.0806 54.5728 16.9487C54.2944 16.8169 54.0723 16.5972 53.9062 16.2896C53.7451 15.9771 53.6646 15.5571 53.6646 15.0298V7.14893ZM59.5605 9.0752V17H58.1982V9.0752H59.5605ZM58.0957 6.97314C58.0957 6.75342 58.1616 6.56787 58.2935 6.4165C58.4302 6.26514 58.6304 6.18945 58.894 6.18945C59.1528 6.18945 59.3506 6.26514 59.4873 6.4165C59.6289 6.56787 59.6997 6.75342 59.6997 6.97314C59.6997 7.18311 59.6289 7.36377 59.4873 7.51514C59.3506 7.66162 59.1528 7.73486 58.894 7.73486C58.6304 7.73486 58.4302 7.66162 58.2935 7.51514C58.1616 7.36377 58.0957 7.18311 58.0957 6.97314ZM61.377 13.1255V12.957C61.377 12.3857 61.46 11.856 61.626 11.3677C61.792 10.8745 62.0312 10.4473 62.3438 10.0859C62.6562 9.71973 63.0347 9.43652 63.479 9.23633C63.9233 9.03125 64.4214 8.92871 64.9731 8.92871C65.5298 8.92871 66.0303 9.03125 66.4746 9.23633C66.9238 9.43652 67.3047 9.71973 67.6172 10.0859C67.9346 10.4473 68.1763 10.8745 68.3423 11.3677C68.5083 11.856 68.5913 12.3857 68.5913 12.957V13.1255C68.5913 13.6968 68.5083 14.2266 68.3423 14.7148C68.1763 15.2031 67.9346 15.6304 67.6172 15.9966C67.3047 16.3579 66.9263 16.6411 66.4819 16.8462C66.0425 17.0464 65.5444 17.1465 64.9878 17.1465C64.4312 17.1465 63.9307 17.0464 63.4863 16.8462C63.042 16.6411 62.6611 16.3579 62.3438 15.9966C62.0312 15.6304 61.792 15.2031 61.626 14.7148C61.46 14.2266 61.377 13.6968 61.377 13.1255ZM62.7319 12.957V13.1255C62.7319 13.521 62.7783 13.8945 62.8711 14.2461C62.9639 14.5928 63.103 14.9004 63.2886 15.1689C63.479 15.4375 63.7158 15.6499 63.999 15.8062C64.2822 15.9575 64.6118 16.0332 64.9878 16.0332C65.3589 16.0332 65.6836 15.9575 65.9619 15.8062C66.2451 15.6499 66.4795 15.4375 66.665 15.1689C66.8506 14.9004 66.9897 14.5928 67.0825 14.2461C67.1802 13.8945 67.229 13.521 67.229 13.1255V12.957C67.229 12.5664 67.1802 12.1978 67.0825 11.8511C66.9897 11.4995 66.8481 11.1895 66.6577 10.9209C66.4722 10.6475 66.2378 10.4326 65.9546 10.2764C65.6763 10.1201 65.3491 10.042 64.9731 10.042C64.6021 10.042 64.2749 10.1201 63.9917 10.2764C63.7134 10.4326 63.479 10.6475 63.2886 10.9209C63.103 11.1895 62.9639 11.4995 62.8711 11.8511C62.7783 12.1978 62.7319 12.5664 62.7319 12.957ZM71.6455 10.7671V17H70.2905V9.0752H71.5723L71.6455 10.7671ZM71.3232 12.7373L70.7593 12.7153C70.7642 12.1733 70.8447 11.6729 71.001 11.2139C71.1572 10.75 71.377 10.3472 71.6602 10.0054C71.9434 9.66357 72.2803 9.3999 72.6709 9.21436C73.0664 9.02393 73.5034 8.92871 73.9819 8.92871C74.3726 8.92871 74.7241 8.98242 75.0366 9.08984C75.3491 9.19238 75.6152 9.3584 75.835 9.58789C76.0596 9.81738 76.2305 10.1152 76.3477 10.4814C76.4648 10.8428 76.5234 11.2847 76.5234 11.8071V17H75.1611V11.7925C75.1611 11.3774 75.1001 11.0454 74.978 10.7964C74.856 10.5425 74.6777 10.3594 74.4434 10.2471C74.209 10.1299 73.9209 10.0713 73.5791 10.0713C73.2422 10.0713 72.9346 10.1421 72.6562 10.2837C72.3828 10.4253 72.146 10.6206 71.9458 10.8696C71.7505 11.1187 71.5967 11.4043 71.4844 11.7266C71.377 12.0439 71.3232 12.3809 71.3232 12.7373ZM83.1958 14.8979C83.1958 14.7026 83.1519 14.522 83.064 14.356C82.981 14.1851 82.8076 14.0312 82.5439 13.8945C82.2852 13.7529 81.8945 13.6309 81.3721 13.5283C80.9326 13.4355 80.5347 13.3257 80.1782 13.1987C79.8267 13.0718 79.5264 12.918 79.2773 12.7373C79.0332 12.5566 78.8452 12.3442 78.7134 12.1001C78.5815 11.856 78.5156 11.5703 78.5156 11.2432C78.5156 10.9307 78.584 10.6353 78.7207 10.3569C78.8623 10.0786 79.0601 9.83203 79.314 9.61719C79.5728 9.40234 79.8828 9.23389 80.2441 9.11182C80.6055 8.98975 81.0083 8.92871 81.4526 8.92871C82.0874 8.92871 82.6294 9.04102 83.0786 9.26562C83.5278 9.49023 83.8721 9.79053 84.1113 10.1665C84.3506 10.5376 84.4702 10.9502 84.4702 11.4043H83.1152C83.1152 11.1846 83.0493 10.9722 82.9175 10.7671C82.7905 10.5571 82.6025 10.3838 82.3535 10.2471C82.1094 10.1104 81.8091 10.042 81.4526 10.042C81.0767 10.042 80.7715 10.1006 80.5371 10.2178C80.3076 10.3301 80.1392 10.4741 80.0317 10.6499C79.9292 10.8257 79.8779 11.0112 79.8779 11.2065C79.8779 11.353 79.9023 11.4849 79.9512 11.6021C80.0049 11.7144 80.0977 11.8193 80.2295 11.917C80.3613 12.0098 80.5469 12.0977 80.7861 12.1807C81.0254 12.2637 81.3306 12.3467 81.7017 12.4297C82.3511 12.5762 82.8857 12.752 83.3057 12.957C83.7256 13.1621 84.0381 13.4136 84.2432 13.7114C84.4482 14.0093 84.5508 14.3706 84.5508 14.7954C84.5508 15.1421 84.4775 15.4595 84.3311 15.7476C84.1895 16.0356 83.9819 16.2847 83.7085 16.4946C83.4399 16.6997 83.1177 16.8608 82.7417 16.978C82.3706 17.0903 81.9531 17.1465 81.4893 17.1465C80.791 17.1465 80.2002 17.022 79.7168 16.7729C79.2334 16.5239 78.8672 16.2017 78.6182 15.8062C78.3691 15.4106 78.2446 14.9932 78.2446 14.5537H79.6069C79.6265 14.9248 79.7339 15.2202 79.9292 15.4399C80.1245 15.6548 80.3638 15.8086 80.647 15.9014C80.9302 15.9893 81.2109 16.0332 81.4893 16.0332C81.8604 16.0332 82.1704 15.9844 82.4194 15.8867C82.6733 15.7891 82.8662 15.6548 82.998 15.4839C83.1299 15.313 83.1958 15.1177 83.1958 14.8979Z" fill="#262626"/>
</svg>
