<svg width="46" height="24" viewBox="0 0 46 24" fill="none" xmlns="http://www.w3.org/2000/svg">
<path d="M5.1709 12.8179H2.32178V11.668H5.1709C5.72266 11.668 6.16943 11.5801 6.51123 11.4043C6.85303 11.2285 7.10205 10.9844 7.2583 10.6719C7.41943 10.3594 7.5 10.0029 7.5 9.60254C7.5 9.23633 7.41943 8.89209 7.2583 8.56982C7.10205 8.24756 6.85303 7.98877 6.51123 7.79346C6.16943 7.59326 5.72266 7.49316 5.1709 7.49316H2.65137V17H1.23779V6.33594H5.1709C5.97656 6.33594 6.65771 6.4751 7.21436 6.75342C7.771 7.03174 8.19336 7.41748 8.48145 7.91064C8.76953 8.39893 8.91357 8.95801 8.91357 9.58789C8.91357 10.2715 8.76953 10.855 8.48145 11.3384C8.19336 11.8218 7.771 12.1904 7.21436 12.4443C6.65771 12.6934 5.97656 12.8179 5.1709 12.8179ZM11.8506 10.3203V17H10.4956V9.0752H11.814L11.8506 10.3203ZM14.3262 9.03125L14.3188 10.291C14.2065 10.2666 14.0991 10.252 13.9966 10.2471C13.8989 10.2373 13.7866 10.2324 13.6597 10.2324C13.3472 10.2324 13.0713 10.2812 12.832 10.3789C12.5928 10.4766 12.3901 10.6133 12.2241 10.7891C12.0581 10.9648 11.9263 11.1748 11.8286 11.4189C11.7358 11.6582 11.6748 11.9219 11.6455 12.21L11.2646 12.4297C11.2646 11.9512 11.311 11.502 11.4038 11.082C11.5015 10.6621 11.6504 10.291 11.8506 9.96875C12.0508 9.6416 12.3047 9.3877 12.6123 9.20703C12.9248 9.02148 13.2959 8.92871 13.7256 8.92871C13.8232 8.92871 13.9355 8.94092 14.0625 8.96533C14.1895 8.98486 14.2773 9.00684 14.3262 9.03125ZM15.0732 13.1255V12.957C15.0732 12.3857 15.1562 11.856 15.3223 11.3677C15.4883 10.8745 15.7275 10.4473 16.04 10.0859C16.3525 9.71973 16.731 9.43652 17.1753 9.23633C17.6196 9.03125 18.1177 8.92871 18.6694 8.92871C19.2261 8.92871 19.7266 9.03125 20.1709 9.23633C20.6201 9.43652 21.001 9.71973 21.3135 10.0859C21.6309 10.4473 21.8726 10.8745 22.0386 11.3677C22.2046 11.856 22.2876 12.3857 22.2876 12.957V13.1255C22.2876 13.6968 22.2046 14.2266 22.0386 14.7148C21.8726 15.2031 21.6309 15.6304 21.3135 15.9966C21.001 16.3579 20.6226 16.6411 20.1782 16.8462C19.7388 17.0464 19.2407 17.1465 18.6841 17.1465C18.1274 17.1465 17.627 17.0464 17.1826 16.8462C16.7383 16.6411 16.3574 16.3579 16.04 15.9966C15.7275 15.6304 15.4883 15.2031 15.3223 14.7148C15.1562 14.2266 15.0732 13.6968 15.0732 13.1255ZM16.4282 12.957V13.1255C16.4282 13.521 16.4746 13.8945 16.5674 14.2461C16.6602 14.5928 16.7993 14.9004 16.9849 15.1689C17.1753 15.4375 17.4121 15.6499 17.6953 15.8062C17.9785 15.9575 18.3081 16.0332 18.6841 16.0332C19.0552 16.0332 19.3799 15.9575 19.6582 15.8062C19.9414 15.6499 20.1758 15.4375 20.3613 15.1689C20.5469 14.9004 20.686 14.5928 20.7788 14.2461C20.8765 13.8945 20.9253 13.521 20.9253 13.1255V12.957C20.9253 12.5664 20.8765 12.1978 20.7788 11.8511C20.686 11.4995 20.5444 11.1895 20.354 10.9209C20.1685 10.6475 19.9341 10.4326 19.6509 10.2764C19.3726 10.1201 19.0454 10.042 18.6694 10.042C18.2983 10.042 17.9712 10.1201 17.688 10.2764C17.4097 10.4326 17.1753 10.6475 16.9849 10.9209C16.7993 11.1895 16.6602 11.4995 16.5674 11.8511C16.4746 12.1978 16.4282 12.5664 16.4282 12.957ZM25.7959 17H24.4409V8.38672C24.4409 7.78613 24.5581 7.27832 24.7925 6.86328C25.0269 6.44824 25.3613 6.1333 25.7959 5.91846C26.2305 5.70361 26.7456 5.59619 27.3413 5.59619C27.6929 5.59619 28.0371 5.64014 28.374 5.72803C28.7109 5.81104 29.0576 5.91602 29.4141 6.04297L29.187 7.18555C28.9624 7.09766 28.7012 7.01465 28.4033 6.93652C28.1104 6.85352 27.7881 6.81201 27.4365 6.81201C26.8555 6.81201 26.4355 6.94385 26.1768 7.20752C25.9229 7.46631 25.7959 7.85938 25.7959 8.38672V17ZM27.4146 9.0752V10.1152H23.1885V9.0752H27.4146ZM30.0806 9.0752V17H28.7256V9.0752H30.0806ZM33.7793 5.75V17H32.417V5.75H33.7793ZM39.2432 17.1465C38.6914 17.1465 38.1909 17.0537 37.7417 16.8682C37.2974 16.6777 36.9141 16.4116 36.5918 16.0698C36.2744 15.728 36.0303 15.3228 35.8594 14.854C35.6885 14.3853 35.603 13.8726 35.603 13.3159V13.0083C35.603 12.3638 35.6982 11.79 35.8887 11.2871C36.0791 10.7793 36.3379 10.3496 36.665 9.99805C36.9922 9.64648 37.3633 9.38037 37.7783 9.19971C38.1934 9.01904 38.623 8.92871 39.0674 8.92871C39.6338 8.92871 40.1221 9.02637 40.5322 9.22168C40.9473 9.41699 41.2866 9.69043 41.5503 10.042C41.814 10.3887 42.0093 10.7988 42.1362 11.2725C42.2632 11.7412 42.3267 12.2539 42.3267 12.8105V13.4185H36.4087V12.3125H40.9717V12.21C40.9521 11.8584 40.8789 11.5166 40.752 11.1846C40.6299 10.8525 40.4346 10.5791 40.166 10.3643C39.8975 10.1494 39.5312 10.042 39.0674 10.042C38.7598 10.042 38.4766 10.1079 38.2178 10.2397C37.959 10.3667 37.7368 10.5571 37.5513 10.811C37.3657 11.0649 37.2217 11.375 37.1191 11.7412C37.0166 12.1074 36.9653 12.5298 36.9653 13.0083V13.3159C36.9653 13.6919 37.0166 14.0459 37.1191 14.3779C37.2266 14.7051 37.3804 14.9932 37.5806 15.2422C37.7856 15.4912 38.0322 15.6865 38.3203 15.8281C38.6133 15.9697 38.9453 16.0405 39.3164 16.0405C39.7949 16.0405 40.2002 15.9429 40.5322 15.7476C40.8643 15.5522 41.1548 15.291 41.4038 14.9639L42.2241 15.6157C42.0532 15.8745 41.8359 16.1211 41.5723 16.3555C41.3086 16.5898 40.9839 16.7803 40.5981 16.9268C40.2173 17.0732 39.7656 17.1465 39.2432 17.1465Z" fill="#262626"/>
</svg>
