<svg width="53" height="24" viewBox="0 0 53 24" fill="none" xmlns="http://www.w3.org/2000/svg">
<g clip-path="url(#clip0_1_491)">
<g clip-path="url(#clip1_1_491)">
<path d="M17.2378 6.33594H20.7681C21.5688 6.33594 22.2451 6.45801 22.7969 6.70215C23.3535 6.94629 23.7759 7.30762 24.064 7.78613C24.3569 8.25977 24.5034 8.84326 24.5034 9.53662C24.5034 10.0249 24.4033 10.4717 24.2031 10.877C24.0078 11.2773 23.7246 11.6191 23.3535 11.9023C22.9873 12.1807 22.5479 12.3882 22.0352 12.5249L21.6396 12.6787H18.3218L18.3071 11.5288H20.812C21.3198 11.5288 21.7422 11.4409 22.0791 11.2651C22.416 11.0845 22.6699 10.8428 22.8408 10.54C23.0117 10.2373 23.0972 9.90283 23.0972 9.53662C23.0972 9.12646 23.0166 8.76758 22.8555 8.45996C22.6943 8.15234 22.4404 7.91553 22.0938 7.74951C21.752 7.57861 21.3101 7.49316 20.7681 7.49316H18.6514V17H17.2378V6.33594ZM23.4707 17L20.8779 12.166L22.3501 12.1587L24.9795 16.9121V17H23.4707ZM29.5645 17.1465C29.0127 17.1465 28.5122 17.0537 28.063 16.8682C27.6187 16.6777 27.2354 16.4116 26.9131 16.0698C26.5957 15.728 26.3516 15.3228 26.1807 14.854C26.0098 14.3853 25.9243 13.8726 25.9243 13.3159V13.0083C25.9243 12.3638 26.0195 11.79 26.21 11.2871C26.4004 10.7793 26.6592 10.3496 26.9863 9.99805C27.3135 9.64648 27.6846 9.38037 28.0996 9.19971C28.5146 9.01904 28.9443 8.92871 29.3887 8.92871C29.9551 8.92871 30.4434 9.02637 30.8535 9.22168C31.2686 9.41699 31.6079 9.69043 31.8716 10.042C32.1353 10.3887 32.3306 10.7988 32.4575 11.2725C32.5845 11.7412 32.6479 12.2539 32.6479 12.8105V13.4185H26.73V12.3125H31.293V12.21C31.2734 11.8584 31.2002 11.5166 31.0732 11.1846C30.9512 10.8525 30.7559 10.5791 30.4873 10.3643C30.2188 10.1494 29.8525 10.042 29.3887 10.042C29.0811 10.042 28.7979 10.1079 28.5391 10.2397C28.2803 10.3667 28.0581 10.5571 27.8726 10.811C27.687 11.0649 27.543 11.375 27.4404 11.7412C27.3379 12.1074 27.2866 12.5298 27.2866 13.0083V13.3159C27.2866 13.6919 27.3379 14.0459 27.4404 14.3779C27.5479 14.7051 27.7017 14.9932 27.9019 15.2422C28.1069 15.4912 28.3535 15.6865 28.6416 15.8281C28.9346 15.9697 29.2666 16.0405 29.6377 16.0405C30.1162 16.0405 30.5215 15.9429 30.8535 15.7476C31.1855 15.5522 31.4761 15.291 31.7251 14.9639L32.5454 15.6157C32.3745 15.8745 32.1572 16.1211 31.8936 16.3555C31.6299 16.5898 31.3052 16.7803 30.9194 16.9268C30.5386 17.0732 30.0869 17.1465 29.5645 17.1465ZM37.5186 17.1465C36.9668 17.1465 36.4663 17.0537 36.0171 16.8682C35.5728 16.6777 35.1895 16.4116 34.8672 16.0698C34.5498 15.728 34.3057 15.3228 34.1348 14.854C33.9639 14.3853 33.8784 13.8726 33.8784 13.3159V13.0083C33.8784 12.3638 33.9736 11.79 34.1641 11.2871C34.3545 10.7793 34.6133 10.3496 34.9404 9.99805C35.2676 9.64648 35.6387 9.38037 36.0537 9.19971C36.4688 9.01904 36.8984 8.92871 37.3428 8.92871C37.9092 8.92871 38.3975 9.02637 38.8076 9.22168C39.2227 9.41699 39.562 9.69043 39.8257 10.042C40.0894 10.3887 40.2847 10.7988 40.4116 11.2725C40.5386 11.7412 40.6021 12.2539 40.6021 12.8105V13.4185H34.6841V12.3125H39.2471V12.21C39.2275 11.8584 39.1543 11.5166 39.0273 11.1846C38.9053 10.8525 38.71 10.5791 38.4414 10.3643C38.1729 10.1494 37.8066 10.042 37.3428 10.042C37.0352 10.042 36.752 10.1079 36.4932 10.2397C36.2344 10.3667 36.0122 10.5571 35.8267 10.811C35.6411 11.0649 35.4971 11.375 35.3945 11.7412C35.292 12.1074 35.2407 12.5298 35.2407 13.0083V13.3159C35.2407 13.6919 35.292 14.0459 35.3945 14.3779C35.502 14.7051 35.6558 14.9932 35.856 15.2422C36.061 15.4912 36.3076 15.6865 36.5957 15.8281C36.8887 15.9697 37.2207 16.0405 37.5918 16.0405C38.0703 16.0405 38.4756 15.9429 38.8076 15.7476C39.1396 15.5522 39.4302 15.291 39.6792 14.9639L40.4995 15.6157C40.3286 15.8745 40.1113 16.1211 39.8477 16.3555C39.584 16.5898 39.2593 16.7803 38.8735 16.9268C38.4927 17.0732 38.041 17.1465 37.5186 17.1465ZM43.6562 5.75V17H42.2939V5.75H43.6562ZM50.4458 14.8979C50.4458 14.7026 50.4019 14.522 50.314 14.356C50.231 14.1851 50.0576 14.0312 49.7939 13.8945C49.5352 13.7529 49.1445 13.6309 48.6221 13.5283C48.1826 13.4355 47.7847 13.3257 47.4282 13.1987C47.0767 13.0718 46.7764 12.918 46.5273 12.7373C46.2832 12.5566 46.0952 12.3442 45.9634 12.1001C45.8315 11.856 45.7656 11.5703 45.7656 11.2432C45.7656 10.9307 45.834 10.6353 45.9707 10.3569C46.1123 10.0786 46.3101 9.83203 46.564 9.61719C46.8228 9.40234 47.1328 9.23389 47.4941 9.11182C47.8555 8.98975 48.2583 8.92871 48.7026 8.92871C49.3374 8.92871 49.8794 9.04102 50.3286 9.26562C50.7778 9.49023 51.1221 9.79053 51.3613 10.1665C51.6006 10.5376 51.7202 10.9502 51.7202 11.4043H50.3652C50.3652 11.1846 50.2993 10.9722 50.1675 10.7671C50.0405 10.5571 49.8525 10.3838 49.6035 10.2471C49.3594 10.1104 49.0591 10.042 48.7026 10.042C48.3267 10.042 48.0215 10.1006 47.7871 10.2178C47.5576 10.3301 47.3892 10.4741 47.2817 10.6499C47.1792 10.8257 47.1279 11.0112 47.1279 11.2065C47.1279 11.353 47.1523 11.4849 47.2012 11.6021C47.2549 11.7144 47.3477 11.8193 47.4795 11.917C47.6113 12.0098 47.7969 12.0977 48.0361 12.1807C48.2754 12.2637 48.5806 12.3467 48.9517 12.4297C49.6011 12.5762 50.1357 12.752 50.5557 12.957C50.9756 13.1621 51.2881 13.4136 51.4932 13.7114C51.6982 14.0093 51.8008 14.3706 51.8008 14.7954C51.8008 15.1421 51.7275 15.4595 51.5811 15.7476C51.4395 16.0356 51.2319 16.2847 50.9585 16.4946C50.6899 16.6997 50.3677 16.8608 49.9917 16.978C49.6206 17.0903 49.2031 17.1465 48.7393 17.1465C48.041 17.1465 47.4502 17.022 46.9668 16.7729C46.4834 16.5239 46.1172 16.2017 45.8682 15.8062C45.6191 15.4106 45.4946 14.9932 45.4946 14.5537H46.8569C46.8765 14.9248 46.9839 15.2202 47.1792 15.4399C47.3745 15.6548 47.6138 15.8086 47.897 15.9014C48.1802 15.9893 48.4609 16.0332 48.7393 16.0332C49.1104 16.0332 49.4204 15.9844 49.6694 15.8867C49.9233 15.7891 50.1162 15.6548 50.248 15.4839C50.3799 15.313 50.4458 15.1177 50.4458 14.8979Z" fill="#262626"/>
</g>
</g>
<defs>
<clipPath id="clip0_1_491">
<rect width="52.5" height="24" fill="white"/>
</clipPath>
<clipPath id="clip1_1_491">
<rect width="37" height="24" fill="white" transform="translate(16)"/>
</clipPath>
</defs>
</svg>
